Coordinates
version=1
nRows=14
nColumns=24
inDegrees=yes

Units are S.I. units (second, meters, Newtons, ...)
Angles are in degrees.

endheader
time	pelvis_tilt	pelvis_list	pelvis_rotation	pelvis_tx	pelvis_ty	pelvis_tz	hip_flexion_r	hip_adduction_r	hip_rotation_r	knee_angle_r	ankle_angle_r	subtalar_angle_r	mtp_angle_r	hip_flexion_l	hip_adduction_l	hip_rotation_l	knee_angle_l	ankle_angle_l	subtalar_angle_l	mtp_angle_l	lumbar_extension	lumbar_bending	lumbar_rotation
      1.04150000	     -0.70606943	     -2.71450650	     -2.02818598	      0.43329311	      1.01281318	      0.35188774	     13.28047428	      5.59908519	     -4.83127918	    -18.54883536	      0.64402984	    -12.06959797	     -2.11519532	     16.88985163	     -9.42389613	    -12.28207956	    -75.25956659	      0.43939686	    -20.62837864	    -10.09840464	    -12.03724217	      8.65357324	      9.84855976
      1.04566667	     -0.39721618	     -2.62812017	     -2.21408824	      0.43819257	      1.01422593	      0.35259410	     12.44670711	      5.58227017	     -4.57361442	    -18.16439312	      0.72091241	    -12.07391834	     -2.10826491	     17.14025712	     -9.35351631	    -12.42222499	    -74.98901659	      0.54609187	    -20.53333969	    -10.30386965	    -12.36484752	      8.46640908	     10.03776466
      1.04983333	     -0.21814354	     -2.52340678	     -2.34147961	      0.44301155	      1.01534500	      0.35313106	     11.78622122	      5.51832205	     -4.41350553	    -17.83686809	      0.80134519	    -12.04140242	     -2.10197864	     17.56669292	     -9.23379825	    -12.47845484	    -74.71491700	      0.70335438	    -20.33145703	    -10.45261260	    -12.53679018	      8.27426724	     10.13125950
      1.05400000	     -0.17579519	     -2.44322358	     -2.42932745	      0.44783839	      1.01618992	      0.35356164	     11.27700833	      5.47119868	     -4.30176142	    -17.51867186	      0.87800807	    -12.02524229	     -2.10065386	     18.16279965	     -9.12361017	    -12.47577805	    -74.42643924	      0.76447175	    -20.24203451	    -10.46898121	    -12.53003256	      8.13323608	     10.15720842
      1.05816667	      0.12731984	     -2.33092573	     -2.56927167	      0.45263484	      1.01748845	      0.35412544	     10.46907255	      5.39204412	     -4.11344817	    -17.15617524	      0.93449234	    -11.98596930	     -2.09590416	     18.41189814	     -8.99591153	    -12.55896303	    -74.02659934	      0.95006166	    -19.91927692	    -10.57865894	    -12.86186675	      7.92266282	     10.27905523
      1.06233333	      0.21571737	     -2.22355891	     -2.65446444	      0.45740723	      1.01836525	      0.35455398	      9.91627016	      5.30715940	     -4.00327737	    -16.83557307	      0.95941108	    -11.98059156	     -2.09472381	     18.93259014	     -8.85238311	    -12.56374817	    -73.62358081	      0.97755052	    -19.71870469	    -10.61410648	    -12.92262112	      7.73382680	     10.33033521
      1.06650000	      0.49477132	     -2.14047741	     -2.78426033	      0.46222239	      1.01955321	      0.35510980	      9.12761093	      5.25220933	     -3.82745227	    -16.46427284	      1.04753154	    -11.93557336	     -2.09045805	     19.18982710	     -8.75818574	    -12.64330368	    -73.14165401	      1.12798140	    -19.46820831	    -10.69299809	    -13.21390374	      7.55356319	     10.42142987
      1.07066667	      0.55645884	     -2.05050771	     -2.85799958	      0.46696884	      1.02030900	      0.35551969	      8.60748789	      5.17999485	     -3.72936840	    -16.14913514	      1.08500865	    -11.91715013	     -2.08996185	     19.72531216	     -8.63181004	    -12.63356800	    -72.65830427	      1.13262051	    -19.24878699	    -10.71125734	    -13.24528666	      7.39374052	     10.45927503
      1.07483333	      0.81056091	     -1.96391355	     -2.97071701	      0.47175384	      1.02138118	      0.35602746	      7.85444749	      5.10894903	     -3.58198108	    -15.79078957	      1.17223137	    -11.85573153	     -2.08887589	     19.99395635	     -8.52508068	    -12.69691556	    -72.09145223	      1.28475884	    -18.95345989	    -10.75084579	    -13.50707076	      7.20627188	     10.52266045
      1.07900000	      0.87715981	     -1.88352741	     -3.03903254	      0.47647125	      1.02207869	      0.35643331	      7.33177577	      5.04131305	     -3.49287724	    -15.47545701	      1.20824190	    -11.82807828	     -2.08933661	     20.50082336	     -8.40994991	    -12.69011718	    -71.51781681	      1.27483733	    -18.71279564	    -10.76078790	    -13.55017002	      7.04433375	     10.55822765
      1.08316667	      1.11049485	     -1.80167153	     -3.14233595	      0.48123068	      1.02304813	      0.35690838	      6.60940309	      4.96546278	     -3.36814288	    -15.12989751	      1.30613066	    -11.74359803	     -2.09078191	     20.77113832	     -8.30309750	    -12.74681765	    -70.86233576	      1.39866810	    -18.42566333	    -10.77090879	    -13.78519957	      6.87343391	     10.60443869
      1.08733333	      1.22601745	     -1.71934971	     -3.21303139	      0.48594261	      1.02376466	      0.35733097	      6.03381864	      4.88868139	     -3.28620878	    -14.81482037	      1.36584642	    -11.68462056	     -2.09433512	     21.18687350	     -8.18565397	    -12.75646906	    -70.18931453	      1.44018856	    -18.16735601	    -10.76697122	    -13.88552198	      6.69432123	     10.64151849
      1.09150000	      1.25769729	     -1.66628650	     -3.27083830	      0.49062253	      1.02428074	      0.35770709	      5.56148104	      4.84261766	     -3.21887041	    -14.52535865	      1.42558628	    -11.62392697	     -2.09584114	     21.69983974	     -8.09863472	    -12.73849828	    -69.49987574	      1.42535991	    -17.90266541	    -10.75987586	    -13.89426182	      6.58281915	     10.66028265
      1.09566667	      1.43807588	     -1.59251284	     -3.34880222	      0.49534152	      1.02504259	      0.35811889	      4.91400674	      4.76299553	     -3.14698744	    -14.21127617	      1.53703618	    -11.49818689	     -2.10290766	     22.00029852	     -7.98952977	    -12.77091835	    -68.72774548	      1.54937408	    -17.59320858	    -10.72820283	    -14.07101601	      6.42118126	     10.66955992
